<svg width="42" height="36" viewBox="0 0 42 36" fill="none" xmlns="http://www.w3.org/2000/svg">
<path d="M9.39705 21.7567L7.9429 26.4349L2.628 26.5318C1.03962 23.9929 0.138672 21.0881 0.138672 18.0013C0.138672 15.0163 0.98104 12.2015 2.4742 9.72296H2.47534L7.20709 10.4706L9.27989 14.5238C8.84606 15.6137 8.6096 16.7838 8.6096 18.0013C8.60976 19.3227 8.8875 20.5887 9.39705 21.7567Z" fill="#FBBB00"/>
<path d="M41.5481 14.6382C41.7879 15.7271 41.913 16.8517 41.913 18.001C41.913 19.2897 41.7558 20.5468 41.4563 21.7594C40.4395 25.8857 37.7825 29.4888 34.1019 32.0386L34.1008 32.0376L28.1409 31.7755L27.2974 27.2377C29.7396 26.0034 31.6483 24.0718 32.6537 21.7594H21.4844V14.6382H32.8166H41.5481Z" fill="#518EF8"/>
<path d="M34.1049 32.037L34.1061 32.038C30.5265 34.5175 25.9793 36.0011 21.0294 36.0011C13.0748 36.0011 6.15887 32.1695 2.63086 26.531L9.39991 21.7559C11.1639 25.8129 15.7053 28.7009 21.0294 28.7009C23.3178 28.7009 25.4618 28.1678 27.3015 27.2371L34.1049 32.037Z" fill="#28B446"/>
<path d="M34.3576 4.14409L27.5909 8.9182C25.6869 7.89259 23.4362 7.30011 21.025 7.30011C15.5804 7.30011 10.954 10.3206 9.27843 14.5232L2.4738 9.72232H2.47266C5.94902 3.94629 12.9522 0 21.025 0C26.0931 0 30.7401 1.55579 34.3576 4.14409Z" fill="#F14336"/>
</svg>
