<svg width="14" height="24" viewBox="0 0 14 24" fill="none" xmlns="http://www.w3.org/2000/svg">
<mask id="path-1-outside-1_2_1592" maskUnits="userSpaceOnUse" x="0" y="0" width="14" height="24" fill="black">
<rect fill="white" width="14" height="24"/>
<path fill-rule="evenodd" clip-rule="evenodd" d="M5.85905 1.06961C5.59142 1.2016 5.57897 1.26927 5.57533 2.60738C5.57242 3.68103 5.55904 3.88767 5.46467 4.31656C5.31173 5.01168 5.14629 5.49389 4.84479 6.12337C4.50431 6.83419 4.13736 7.3895 3.12014 8.73324C2.16022 10.0014 1.94907 10.3169 1.62628 10.9654C1.12768 11.9672 0.965974 12.7393 1.00577 13.928C1.09831 16.6896 2.4179 18.8736 4.61992 19.9098C4.92889 20.0551 5.01658 20.1176 4.99408 20.1762C4.93873 20.3205 4.46587 21.0854 4.06242 21.6833C3.63648 22.3145 3.59441 22.4438 3.7295 22.705C3.80246 22.8461 4.06291 23 4.22864 23C4.28065 23 4.39573 22.9509 4.48434 22.8909C4.67731 22.7603 5.3493 21.7899 5.80645 20.9816L6.13617 20.3986L6.3639 20.4361C6.96366 20.5349 7.96416 20.4291 8.69829 20.1892C11.1929 19.3739 12.9298 17.0406 13.328 13.9693C13.4117 13.3232 13.4245 11.9978 13.352 11.4875C13.0534 9.38914 11.647 6.81339 9.30227 4.07105C8.56247 3.20584 6.73448 1.33946 6.42798 1.13645C6.18416 0.974937 6.07655 0.962286 5.85905 1.06961ZM8.428 4.72646C10.5368 7.1753 11.7873 9.34667 12.1962 11.2694C12.3335 11.9153 12.3444 13.1902 12.2194 13.9932C11.9381 15.8001 11.1308 17.3216 9.94794 18.2744C9.47465 18.6556 8.65156 19.0765 8.09426 19.2223C7.60037 19.3514 6.63448 19.412 6.67689 19.3111C7.31515 17.7942 7.61917 16.9116 7.92272 15.6949C8.28971 14.2239 8.57309 12.2262 8.45515 11.9416C8.32975 11.6388 7.94332 11.5238 7.65087 11.7021C7.46105 11.8178 7.41243 11.9682 7.34408 12.6509C7.20729 14.0165 6.85862 15.621 6.40491 16.9724C6.16632 17.6832 5.63791 18.9989 5.55686 19.0839C5.50446 19.1389 4.58443 18.6736 4.26063 18.4283C3.88811 18.1461 3.31588 17.5459 3.10584 17.2171C2.38305 16.0855 1.97849 14.4749 2.10719 13.2408C2.2386 11.9799 2.65281 11.145 4.04735 9.33043C5.42768 7.53429 5.91814 6.69512 6.31426 5.45143C6.53821 4.74846 6.71015 3.76043 6.71451 3.15131L6.71626 2.90768L7.33255 3.53885C7.67153 3.88597 8.16445 4.42039 8.428 4.72646Z"/>
</mask>
<path fill-rule="evenodd" clip-rule="evenodd" d="M5.85905 1.06961C5.59142 1.2016 5.57897 1.26927 5.57533 2.60738C5.57242 3.68103 5.55904 3.88767 5.46467 4.31656C5.31173 5.01168 5.14629 5.49389 4.84479 6.12337C4.50431 6.83419 4.13736 7.3895 3.12014 8.73324C2.16022 10.0014 1.94907 10.3169 1.62628 10.9654C1.12768 11.9672 0.965974 12.7393 1.00577 13.928C1.09831 16.6896 2.4179 18.8736 4.61992 19.9098C4.92889 20.0551 5.01658 20.1176 4.99408 20.1762C4.93873 20.3205 4.46587 21.0854 4.06242 21.6833C3.63648 22.3145 3.59441 22.4438 3.7295 22.705C3.80246 22.8461 4.06291 23 4.22864 23C4.28065 23 4.39573 22.9509 4.48434 22.8909C4.67731 22.7603 5.3493 21.7899 5.80645 20.9816L6.13617 20.3986L6.3639 20.4361C6.96366 20.5349 7.96416 20.4291 8.69829 20.1892C11.1929 19.3739 12.9298 17.0406 13.328 13.9693C13.4117 13.3232 13.4245 11.9978 13.352 11.4875C13.0534 9.38914 11.647 6.81339 9.30227 4.07105C8.56247 3.20584 6.73448 1.33946 6.42798 1.13645C6.18416 0.974937 6.07655 0.962286 5.85905 1.06961ZM8.428 4.72646C10.5368 7.1753 11.7873 9.34667 12.1962 11.2694C12.3335 11.9153 12.3444 13.1902 12.2194 13.9932C11.9381 15.8001 11.1308 17.3216 9.94794 18.2744C9.47465 18.6556 8.65156 19.0765 8.09426 19.2223C7.60037 19.3514 6.63448 19.412 6.67689 19.3111C7.31515 17.7942 7.61917 16.9116 7.92272 15.6949C8.28971 14.2239 8.57309 12.2262 8.45515 11.9416C8.32975 11.6388 7.94332 11.5238 7.65087 11.7021C7.46105 11.8178 7.41243 11.9682 7.34408 12.6509C7.20729 14.0165 6.85862 15.621 6.40491 16.9724C6.16632 17.6832 5.63791 18.9989 5.55686 19.0839C5.50446 19.1389 4.58443 18.6736 4.26063 18.4283C3.88811 18.1461 3.31588 17.5459 3.10584 17.2171C2.38305 16.0855 1.97849 14.4749 2.10719 13.2408C2.2386 11.9799 2.65281 11.145 4.04735 9.33043C5.42768 7.53429 5.91814 6.69512 6.31426 5.45143C6.53821 4.74846 6.71015 3.76043 6.71451 3.15131L6.71626 2.90768L7.33255 3.53885C7.67153 3.88597 8.16445 4.42039 8.428 4.72646Z" fill="black"/>
<path fill-rule="evenodd" clip-rule="evenodd" d="M5.85905 1.06961C5.59142 1.2016 5.57897 1.26927 5.57533 2.60738C5.57242 3.68103 5.55904 3.88767 5.46467 4.31656C5.31173 5.01168 5.14629 5.49389 4.84479 6.12337C4.50431 6.83419 4.13736 7.3895 3.12014 8.73324C2.16022 10.0014 1.94907 10.3169 1.62628 10.9654C1.12768 11.9672 0.965974 12.7393 1.00577 13.928C1.09831 16.6896 2.4179 18.8736 4.61992 19.9098C4.92889 20.0551 5.01658 20.1176 4.99408 20.1762C4.93873 20.3205 4.46587 21.0854 4.06242 21.6833C3.63648 22.3145 3.59441 22.4438 3.7295 22.705C3.80246 22.8461 4.06291 23 4.22864 23C4.28065 23 4.39573 22.9509 4.48434 22.8909C4.67731 22.7603 5.3493 21.7899 5.80645 20.9816L6.13617 20.3986L6.3639 20.4361C6.96366 20.5349 7.96416 20.4291 8.69829 20.1892C11.1929 19.3739 12.9298 17.0406 13.328 13.9693C13.4117 13.3232 13.4245 11.9978 13.352 11.4875C13.0534 9.38914 11.647 6.81339 9.30227 4.07105C8.56247 3.20584 6.73448 1.33946 6.42798 1.13645C6.18416 0.974937 6.07655 0.962286 5.85905 1.06961ZM8.428 4.72646C10.5368 7.1753 11.7873 9.34667 12.1962 11.2694C12.3335 11.9153 12.3444 13.1902 12.2194 13.9932C11.9381 15.8001 11.1308 17.3216 9.94794 18.2744C9.47465 18.6556 8.65156 19.0765 8.09426 19.2223C7.60037 19.3514 6.63448 19.412 6.67689 19.3111C7.31515 17.7942 7.61917 16.9116 7.92272 15.6949C8.28971 14.2239 8.57309 12.2262 8.45515 11.9416C8.32975 11.6388 7.94332 11.5238 7.65087 11.7021C7.46105 11.8178 7.41243 11.9682 7.34408 12.6509C7.20729 14.0165 6.85862 15.621 6.40491 16.9724C6.16632 17.6832 5.63791 18.9989 5.55686 19.0839C5.50446 19.1389 4.58443 18.6736 4.26063 18.4283C3.88811 18.1461 3.31588 17.5459 3.10584 17.2171C2.38305 16.0855 1.97849 14.4749 2.10719 13.2408C2.2386 11.9799 2.65281 11.145 4.04735 9.33043C5.42768 7.53429 5.91814 6.69512 6.31426 5.45143C6.53821 4.74846 6.71015 3.76043 6.71451 3.15131L6.71626 2.90768L7.33255 3.53885C7.67153 3.88597 8.16445 4.42039 8.428 4.72646Z" stroke="black" stroke-width="0.413642" mask="url(#path-1-outside-1_2_1592)"/>
</svg>
